<svg width="112" height="46" viewBox="0 0 112 46" fill="none" xmlns="http://www.w3.org/2000/svg">
<g filter="url(#filter0_d_0_19)">
<path d="M24.968 12.28C26.936 12.28 28.472 12.916 29.576 14.188C30.68 15.46 31.232 17.308 31.232 19.732V31H27.128V20.128C27.128 17.104 26.024 15.592 23.816 15.592C22.616 15.592 21.668 16.084 20.972 17.068C20.3 18.028 19.964 19.384 19.964 21.136V31H15.86V19.696C15.86 18.4 15.572 17.392 14.996 16.672C14.444 15.952 13.64 15.592 12.584 15.592C11.36 15.592 10.412 16.084 9.74 17.068C9.068 18.052 8.732 19.432 8.732 21.208V31H4.628V12.712H8.552V14.908H8.624C9.92 13.156 11.612 12.28 13.7 12.28C16.34 12.28 18.14 13.384 19.1 15.592C20.516 13.384 22.472 12.28 24.968 12.28ZM42.4322 31.432C40.3202 31.432 38.6762 30.796 37.5002 29.524C36.3482 28.252 35.7722 26.38 35.7722 23.908V12.712H39.8762V23.548C39.8762 26.596 41.1122 28.12 43.5842 28.12C44.8082 28.12 45.8042 27.664 46.5722 26.752C47.3642 25.84 47.7602 24.544 47.7602 22.864V12.712H51.8642V31H47.9762V28.624H47.9042C46.6082 30.496 44.7842 31.432 42.4322 31.432ZM61.2203 5.368V31H57.1163V5.368H61.2203ZM75.9718 12.244C78.2998 12.244 80.1478 13.12 81.5158 14.872C82.9078 16.6 83.6038 18.928 83.6038 21.856C83.6038 24.784 82.9198 27.112 81.5518 28.84C80.1838 30.568 78.3358 31.432 76.0078 31.432C74.8558 31.432 73.7998 31.192 72.8398 30.712C71.9038 30.208 71.1718 29.512 70.6438 28.624H70.5718V37.66H66.4678V12.712H70.4638V15.232H70.5358C71.0638 14.296 71.8078 13.564 72.7678 13.036C73.7518 12.508 74.8198 12.244 75.9718 12.244ZM74.7838 15.448C73.4398 15.448 72.3598 16.024 71.5438 17.176C70.7518 18.304 70.3558 19.864 70.3558 21.856C70.3558 23.824 70.7518 25.384 71.5438 26.536C72.3598 27.688 73.4398 28.264 74.7838 28.264C76.1758 28.264 77.2798 27.688 78.0958 26.536C78.9118 25.36 79.3198 23.8 79.3198 21.856C79.3198 19.912 78.9118 18.364 78.0958 17.212C77.2798 16.036 76.1758 15.448 74.7838 15.448ZM106.857 5.368L98.8648 17.896L107.289 31H102.249L96.2728 21.208H96.2008L90.2248 31H85.1488L93.6088 17.896L85.5808 5.368H90.5848L96.2008 14.764H96.2728L101.889 5.368H106.857Z" fill="#7D5C44"/>
</g>
<circle cx="7.5" cy="4.5" r="4.5" fill="#DBA976"/>
<circle cx="25.5" cy="4.5" r="4.5" fill="#DBA976"/>
<defs>
<filter id="filter0_d_0_19" x="0.62793" y="5.36801" width="110.661" height="40.292" filterUnits="userSpaceOnUse" color-interpolation-filters="sRGB">
<feFlood flood-opacity="0" result="BackgroundImageFix"/>
<feColorMatrix in="SourceAlpha" type="matrix" values="0 0 0 0 0 0 0 0 0 0 0 0 0 0 0 0 0 0 127 0" result="hardAlpha"/>
<feOffset dy="4"/>
<feGaussianBlur stdDeviation="2"/>
<feColorMatrix type="matrix" values="0 0 0 0 0.466667 0 0 0 0 0.466667 0 0 0 0 0.466667 0 0 0 0.07 0"/>
<feBlend mode="normal" in2="BackgroundImageFix" result="effect1_dropShadow_0_19"/>
<feBlend mode="normal" in="SourceGraphic" in2="effect1_dropShadow_0_19" result="shape"/>
</filter>
</defs>
</svg>
