<svg width="24" height="24" viewBox="0 0 24 24" fill="none" xmlns="http://www.w3.org/2000/svg">
<g clip-path="url(#clip0_0_41)">
<path d="M21.1032 19.0994C21.0327 19.0536 20.5017 18.6816 19.9701 17.5564C18.9937 15.49 18.7888 12.5792 18.7888 10.5012C18.7888 10.4921 18.7886 10.4832 18.7882 10.4742C18.7776 7.72781 17.1331 5.36034 14.7798 4.29811V2.67356C14.7798 1.19934 13.5824 0 12.1106 0H11.8894C10.4176 0 9.22025 1.19934 9.22025 2.67356V4.29802C6.85907 5.36367 5.21127 7.74323 5.21127 10.5012C5.21127 12.5792 5.00633 15.49 4.02997 17.5564C3.49836 18.6816 2.96741 19.0535 2.89682 19.0994C2.59954 19.2369 2.45296 19.5548 2.52135 19.8768C2.59039 20.2021 2.89443 20.4263 3.22644 20.4263H8.38021C8.40899 22.4017 10.0212 24 12 24C13.9789 24 15.5911 22.4017 15.6199 20.4263H20.7736C21.1056 20.4263 21.4097 20.2021 21.4787 19.8768C21.547 19.5548 21.4005 19.2369 21.1032 19.0994ZM10.6266 2.67356C10.6266 1.97602 11.1931 1.40855 11.8895 1.40855H12.1107C12.807 1.40855 13.3736 1.97602 13.3736 2.67356V3.84155C12.9298 3.74981 12.4703 3.70153 11.9998 3.70153C11.5295 3.70153 11.0702 3.74977 10.6266 3.84141V2.67356H10.6266ZM12 22.5915C10.7966 22.5915 9.815 21.625 9.78646 20.4264H14.2136C14.1851 21.625 13.2035 22.5915 12 22.5915ZM14.8313 19.0177C14.8311 19.0177 4.82886 19.0177 4.82886 19.0177C4.9505 18.8282 5.0743 18.6135 5.19735 18.371C6.13972 16.5127 6.61757 13.8649 6.61757 10.5012C6.61757 7.5285 9.03205 5.11008 11.9998 5.11008C14.9676 5.11008 17.382 7.5285 17.382 10.5035C17.382 10.5122 17.3822 10.5208 17.3825 10.5294C17.3852 13.8797 17.863 16.518 18.8027 18.371C18.9258 18.6136 19.0496 18.8282 19.1712 19.0177H14.8313Z" fill="black"/>
</g>
<defs>
<clipPath id="clip0_0_41">
<rect width="24" height="24" fill="white"/>
</clipPath>
</defs>
</svg>
