<svg width="25" height="25" viewBox="0 0 25 25" fill="none" xmlns="http://www.w3.org/2000/svg">
<path d="M10.403 11.3007C10.4509 11.3203 10.5021 11.3302 10.5538 11.3298C10.6055 11.3295 10.6566 11.3189 10.7041 11.2986C10.7517 11.2784 10.7948 11.2489 10.8308 11.2119C10.8669 11.1748 10.8953 11.131 10.9143 11.083C10.9333 11.0349 10.9426 10.9836 10.9417 10.9319C10.9407 10.8802 10.9295 10.8292 10.9087 10.7819C10.8878 10.7346 10.8578 10.6919 10.8204 10.6563C10.783 10.6206 10.7388 10.5928 10.6905 10.5743C9.7859 10.2162 8.62511 10.019 7.42179 10.019C6.21847 10.019 5.05768 10.2162 4.15304 10.5743C4.10476 10.5928 4.06062 10.6206 4.02318 10.6563C3.98574 10.6919 3.95574 10.7346 3.93493 10.7819C3.91411 10.8292 3.9029 10.8802 3.90192 10.9319C3.90095 10.9836 3.91025 11.0349 3.92927 11.083C3.94829 11.131 3.97667 11.1748 4.01274 11.2119C4.04882 11.2489 4.09188 11.2784 4.13944 11.2986C4.18699 11.3189 4.23809 11.3295 4.28978 11.3298C4.34147 11.3302 4.39271 11.3203 4.44054 11.3007C5.25597 10.9779 6.31466 10.8002 7.42179 10.8002C8.52892 10.8002 9.58766 10.9779 10.403 11.3007Z" fill="#0D4138"/>
<path d="M20.3125 0.78125H18.75C17.6091 0.78125 16.6205 2.02363 15.891 4.37402C15.5453 5.48804 15.2793 6.78838 15.1018 8.20312H7.03125V8.20889C5.45469 8.25063 3.98018 8.54385 2.84443 9.04624C1.51396 9.63472 0.78125 10.4558 0.78125 11.3583C0.78125 12.1342 1.33384 12.861 2.34375 13.422V20.6079C1.75043 21.0826 1.34492 21.7525 1.19946 22.4983C1.15759 22.7089 1.16303 22.9262 1.21538 23.1344C1.26774 23.3427 1.3657 23.5366 1.5022 23.7024C1.63397 23.8637 1.79994 23.9937 1.9881 24.083C2.17626 24.1723 2.38191 24.2187 2.59019 24.2188H16.9411C17.2577 24.2188 17.5649 24.1116 17.8127 23.9146C18.0873 24.1082 18.4141 24.2143 18.75 24.2188H20.3125C21.4534 24.2188 22.442 22.9764 23.1715 20.626C23.8468 18.4499 24.2188 15.564 24.2188 12.5C24.2188 9.43599 23.8468 6.5501 23.1715 4.37402C22.442 2.02363 21.4534 0.78125 20.3125 0.78125ZM2.59019 23.4375C2.49727 23.4372 2.40557 23.4163 2.32173 23.3762C2.23789 23.3362 2.16399 23.278 2.10537 23.2059C2.04233 23.1291 1.99714 23.0393 1.97307 22.9429C1.94899 22.8465 1.94663 22.7459 1.96616 22.6485C2.04115 22.2596 2.21063 21.8951 2.45965 21.5872C2.70868 21.2792 3.02961 21.0372 3.39419 20.8825C3.28779 21.1852 3.20827 21.4966 3.15654 21.8133C3.06067 22.377 3.17854 22.9561 3.48711 23.4375H2.59019ZM5.07812 23.4375H4.85161C4.6207 23.4375 4.39751 23.3247 4.22373 23.1201C3.96675 22.8176 3.85601 22.3763 3.92749 21.9396C4.1228 20.7457 4.74292 19.7462 5.58433 19.1991C5.43783 19.8086 5.42941 20.4431 5.55967 21.0562L6.02842 23.2876C6.03943 23.3385 6.05389 23.3885 6.07168 23.4374L5.07812 23.4375ZM6.00293 18.1374C5.11201 18.4295 4.34902 19.0829 3.82637 19.9567C3.5858 19.9929 3.35037 20.0575 3.125 20.1491V13.1866C3.125 13.1141 3.10484 13.043 3.06677 12.9814C3.0287 12.9197 2.97422 12.8698 2.90942 12.8374C2.04102 12.402 1.5625 11.8767 1.5625 11.3583C1.5625 10.7922 2.14497 10.21 3.1605 9.76074C4.29224 9.26006 5.80566 8.98438 7.42188 8.98438C9.03809 8.98438 10.5518 9.26006 11.6833 9.76074C12.6989 10.21 13.2812 10.7922 13.2812 11.3583C13.2812 11.8768 12.8027 12.4021 11.9343 12.8374C11.8695 12.8699 11.8151 12.9197 11.777 12.9814C11.7389 13.0431 11.7188 13.1141 11.7188 13.1866V16.4304C11.4219 16.2891 11.1089 16.1844 10.7867 16.1188C10.113 15.9805 9.41824 15.9805 8.74453 16.1188C8.21801 16.226 7.71811 16.437 7.27398 16.7394C6.82985 17.0418 6.45038 17.4297 6.15771 17.8803C6.10249 17.9644 6.05166 18.0504 6.00293 18.1374ZM13.207 20.8954L12.7382 23.1272C12.7195 23.2148 12.6714 23.2933 12.6018 23.3498C12.5323 23.4062 12.4455 23.4372 12.356 23.4375H7.17529C7.08573 23.4372 6.99898 23.4062 6.92944 23.3498C6.8599 23.2933 6.81176 23.2148 6.79302 23.1272L6.32427 20.8954C6.2296 20.4536 6.22385 19.9974 6.30737 19.5534C6.39088 19.1094 6.56199 18.6865 6.81069 18.3093C7.04701 17.9449 7.3535 17.6313 7.71231 17.3866C8.07111 17.142 8.47504 16.9712 8.90054 16.8843C9.47118 16.7672 10.0597 16.7672 10.6303 16.8843C11.0558 16.9712 11.4597 17.142 11.8186 17.3866C12.1774 17.6313 12.4839 17.9449 12.7202 18.3093C12.9689 18.6864 13.1401 19.1094 13.2237 19.5534C13.3073 19.9974 13.3016 20.4536 13.207 20.8954ZM15.3076 23.1201C15.1336 23.3249 14.9106 23.4375 14.6797 23.4375H13.4595C13.4773 23.3886 13.4918 23.3386 13.5028 23.2878L13.9715 21.0561C14.1019 20.4429 14.0935 19.8084 13.9471 19.199C14.7886 19.7458 15.4085 20.7456 15.604 21.9395C15.6752 22.3762 15.5645 22.8174 15.3076 23.1201ZM13.5283 18.1374C13.4795 18.0504 13.4288 17.9644 13.3735 17.8803C13.1348 17.5163 12.84 17.1923 12.5 16.9204V13.422C13.5099 12.861 14.0625 12.1342 14.0625 11.3583C14.0625 10.4558 13.3298 9.63462 11.9993 9.04624C11.9514 9.025 11.9017 9.00483 11.8528 8.98438H15.0142C14.9021 10.1066 14.8438 11.2893 14.8438 12.5C14.8438 15.2615 15.1431 17.8604 15.6934 19.9375C15.1711 19.0732 14.4127 18.4274 13.5283 18.1374ZM17.4259 23.2057C17.3673 23.2778 17.2934 23.3361 17.2095 23.3761C17.1257 23.4162 17.034 23.4372 16.9411 23.4375H16.0441C16.3527 22.9561 16.4706 22.3769 16.3747 21.8132C16.323 21.4966 16.2434 21.1852 16.1371 20.8825C16.5016 21.0372 16.8226 21.2792 17.0716 21.5872C17.3206 21.8951 17.4901 22.2596 17.5651 22.6485C17.5846 22.746 17.5823 22.8465 17.5582 22.9429C17.5341 23.0393 17.4889 23.1291 17.4259 23.2059V23.2057ZM18.75 23.4375C18.5785 23.4324 18.4121 23.3778 18.2708 23.2804C18.3623 23.0302 18.3834 22.7597 18.3318 22.4983C18.237 22.0107 18.03 21.5519 17.7273 21.1581C17.4245 20.7643 17.0342 20.4464 16.5873 20.2295C16.3896 19.553 16.2286 18.8663 16.1049 18.1724C16.6443 18.021 17.8408 17.8173 19.4077 18.3396C19.4568 18.3578 19.5091 18.3659 19.5615 18.3635C19.6138 18.3612 19.6652 18.3483 19.7124 18.3256C19.7597 18.303 19.8019 18.2711 19.8365 18.2318C19.8712 18.1925 19.8976 18.1466 19.9142 18.0969C19.9308 18.0472 19.9372 17.9946 19.933 17.9424C19.9289 17.8902 19.9143 17.8393 19.89 17.7928C19.8658 17.7464 19.8325 17.7052 19.7921 17.6719C19.7517 17.6386 19.7049 17.6137 19.6547 17.5988L19.6503 17.5974L19.6448 17.5957C17.9634 17.0376 16.6565 17.2167 15.9758 17.3963C15.7509 15.8626 15.634 14.315 15.626 12.7649C16.1035 12.6025 17.3387 12.3118 19.017 12.8712C19.0661 12.8894 19.1184 12.8976 19.1708 12.8952C19.2231 12.8928 19.2744 12.8799 19.3217 12.8573C19.3689 12.8346 19.4112 12.8027 19.4458 12.7634C19.4805 12.7241 19.5069 12.6782 19.5235 12.6285C19.54 12.5788 19.5464 12.5263 19.5423 12.474C19.5382 12.4218 19.5235 12.3709 19.4993 12.3245C19.4751 12.278 19.4418 12.2369 19.4014 12.2036C19.3609 12.1702 19.3142 12.1454 19.264 12.1305L19.2597 12.1291L19.254 12.1273C17.6098 11.5817 16.3237 11.7597 15.629 11.9488C15.6463 10.5166 15.7578 9.08701 15.9627 7.66938C16.408 7.5229 17.6836 7.21885 19.4075 7.79346C19.4566 7.81169 19.5089 7.81985 19.5613 7.81745C19.6136 7.81506 19.665 7.80216 19.7122 7.77952C19.7595 7.75688 19.8017 7.72496 19.8364 7.68566C19.871 7.64637 19.8974 7.6005 19.914 7.55079C19.9306 7.50108 19.937 7.44855 19.9328 7.39631C19.9287 7.34408 19.9141 7.29321 19.8899 7.24674C19.8656 7.20027 19.8323 7.15915 19.7919 7.12582C19.7515 7.09249 19.7047 7.06763 19.6545 7.05273L19.6501 7.05132L19.6446 7.04961C18.0629 6.52461 16.8131 6.652 16.1038 6.81851C16.2376 6.07145 16.4157 5.33299 16.6369 4.60698C17.2285 2.7002 18.0184 1.5625 18.75 1.5625C19.4816 1.5625 20.2715 2.7002 20.8628 4.60557C21.5156 6.70898 21.875 9.5123 21.875 12.5C21.875 15.4877 21.5156 18.2913 20.8628 20.3944C20.2715 22.2998 19.4816 23.4375 18.75 23.4375ZM22.4253 20.3944C21.834 22.2998 21.0441 23.4375 20.3125 23.4375H20.2217C20.7481 22.8354 21.2162 21.8917 21.609 20.626C22.2843 18.4499 22.6562 15.564 22.6562 12.5C22.6562 9.43599 22.2843 6.5501 21.609 4.37402C21.2162 3.10835 20.7481 2.1646 20.2217 1.5625H20.3125C21.0441 1.5625 21.834 2.7002 22.4253 4.60557C23.0781 6.70898 23.4375 9.5123 23.4375 12.5C23.4375 15.4877 23.0781 18.2913 22.4253 20.3944Z" fill="#0D4138"/>
</svg>
