<svg width="24" height="24" viewBox="0 0 24 24" fill="none" xmlns="http://www.w3.org/2000/svg">
<path d="M20.1449 1.61721H3.83162C2.12599 1.61721 0.738281 3.00465 0.738281 4.71055V14.694C0.738281 16.396 2.11995 17.7813 3.82063 17.7873V22.3176L10.3313 17.7873H20.1449C21.8506 17.7873 23.2383 16.3996 23.2383 14.694V4.71055C23.2383 3.00465 21.8506 1.61721 20.1449 1.61721ZM21.9199 14.694C21.9199 15.6726 21.1237 16.4689 20.1449 16.4689H9.91763L5.13899 19.7942V16.4689H3.83162C2.85287 16.4689 2.05664 15.6726 2.05664 14.694V4.71055C2.05664 3.73167 2.85287 2.93557 3.83162 2.93557H20.1449C21.1237 2.93557 21.9199 3.73167 21.9199 4.71055V14.694Z" fill="#787878"/>
<path d="M6.76025 6.27566H17.2162V7.59402H6.76025V6.27566Z" fill="#787878"/>
<path d="M6.76025 9.08816H17.2162V10.4065H6.76025V9.08816Z" fill="#787878"/>
<path d="M6.76025 11.9007H17.2162V13.219H6.76025V11.9007Z" fill="#787878"/>
</svg>
