<svg width="24" height="24" viewBox="0 0 24 24" fill="none" xmlns="http://www.w3.org/2000/svg">
<path d="M22.4875 6.06891C21.6029 5.17284 20.4501 4.63355 19.2081 4.52747C18.9225 3.31833 18.2544 2.22127 17.301 1.40705C16.2386 0.499687 14.883 0 13.4841 0C11.613 0 9.87661 0.878297 8.76764 2.36752C8.27817 2.20795 7.76808 2.12723 7.24655 2.12723C6.72366 2.12723 6.20878 2.20903 5.71627 2.37038C5.47022 2.45095 5.33611 2.7157 5.41669 2.9617C5.49727 3.2077 5.76211 3.34195 6.00806 3.26128C6.40627 3.13092 6.82294 3.06478 7.24655 3.06478C7.77248 3.06478 8.28361 3.16598 8.76577 3.36553C8.97431 3.45202 9.21478 3.37734 9.33792 3.1882C10.2553 1.77886 11.8053 0.9375 13.4841 0.9375C15.9075 0.9375 17.9575 2.66916 18.3587 5.05509C18.3962 5.27841 18.588 5.44294 18.8145 5.44608C21.1568 5.47842 23.0625 7.41103 23.0625 9.75408C23.0625 12.13 21.1296 14.0629 18.7537 14.0629H18.2344V11.3537C18.2344 10.8134 17.8875 10.0451 16.2348 9.45394C15.0964 9.04669 13.5925 8.82244 12 8.82244C10.4075 8.82244 8.90358 9.04669 7.76522 9.45394C6.11255 10.0451 5.76562 10.8134 5.76562 11.3537V14.0629H3.94481C2.28656 14.0629 0.9375 12.7138 0.9375 11.0556C0.9375 9.75314 1.76869 8.60503 3.00581 8.19867C3.22477 8.12672 3.35897 7.90627 3.32227 7.67869C3.28823 7.46784 3.27103 7.25306 3.27103 7.04025C3.27103 6.64505 3.32873 6.25505 3.44255 5.88103C3.51792 5.63339 3.37823 5.3715 3.13055 5.29612C2.88295 5.22061 2.62102 5.36039 2.54564 5.60808C2.40488 6.07064 2.33353 6.55247 2.33353 7.04025C2.33353 7.17558 2.3392 7.31147 2.35036 7.44708C0.929859 8.07263 0 9.47775 0 11.0556C0 13.2308 1.76962 15.0004 3.94481 15.0004H5.76562V21.4688C5.76562 22.0091 6.11255 22.7773 7.76522 23.3685C8.90353 23.7758 10.4075 24 12 24C13.5925 24 15.0965 23.7758 16.2348 23.3685C17.8875 22.7773 18.2344 22.0091 18.2344 21.4688V15.0004H18.7537C21.6465 15.0004 24 12.6469 24 9.75408C24 8.36564 23.4629 7.05689 22.4875 6.06891ZM17.2969 14.7254C17.2969 14.9672 16.936 15.3787 15.919 15.7425C14.8794 16.1144 13.4876 16.3192 12 16.3192C10.5124 16.3192 9.12056 16.1144 8.08097 15.7425C7.06397 15.3786 6.70312 14.9672 6.70312 14.7254V12.7497C6.9765 12.9251 7.32389 13.0956 7.76522 13.2535C8.90358 13.6607 10.4075 13.885 12 13.885C13.5925 13.885 15.0965 13.6607 16.2348 13.2535C16.6761 13.0956 17.0235 12.9251 17.2969 12.7497V14.7254ZM6.70312 16.1213C6.9765 16.2967 7.32389 16.4673 7.76522 16.6252C8.90358 17.0324 10.4075 17.2567 12 17.2567C13.5925 17.2567 15.0965 17.0324 16.2348 16.6252C16.6761 16.4673 17.0235 16.2967 17.2969 16.1213V18.097C17.2969 18.3388 16.936 18.7503 15.919 19.1141C14.8794 19.486 13.4876 19.6908 12 19.6908C10.5124 19.6908 9.12056 19.486 8.08097 19.1141C7.06397 18.7503 6.70312 18.3389 6.70312 18.097V16.1213ZM8.08097 10.3367C9.12061 9.96474 10.5124 9.75994 12 9.75994C13.4876 9.75994 14.8794 9.96474 15.919 10.3367C16.936 10.7004 17.2969 11.1119 17.2969 11.3537C17.2969 11.5955 16.936 12.0069 15.919 12.3707C14.8794 12.7426 13.4876 12.9474 12 12.9474C10.5124 12.9474 9.12056 12.7426 8.08097 12.3707C7.06397 12.0069 6.70312 11.5955 6.70312 11.3537C6.70312 11.1119 7.06397 10.7004 8.08097 10.3367ZM15.919 22.4858C14.8794 22.8577 13.4876 23.0625 12 23.0625C10.5124 23.0625 9.12056 22.8577 8.08097 22.4858C7.06397 22.122 6.70312 21.7105 6.70312 21.4688V19.493C6.9765 19.6684 7.32389 19.839 7.76522 19.9968C8.90358 20.4041 10.4075 20.6283 12 20.6283C13.5925 20.6283 15.0965 20.4041 16.2348 19.9968C16.6761 19.839 17.0235 19.6684 17.2969 19.493V21.4688C17.2969 21.7105 16.936 22.122 15.919 22.4858Z" fill="#787878"/>
<path d="M4.07153 4.39963C4.19481 4.39963 4.31575 4.34952 4.40294 4.26229C4.49013 4.17463 4.54028 4.05421 4.54028 3.93041C4.54028 3.80713 4.49013 3.68666 4.40294 3.59906C4.31575 3.51187 4.19481 3.46213 4.07153 3.46213C3.94825 3.46213 3.82731 3.51187 3.74013 3.59906C3.65294 3.68666 3.60278 3.80713 3.60278 3.93041C3.60278 4.05421 3.65294 4.17463 3.74013 4.26229C3.82731 4.34952 3.94825 4.39963 4.07153 4.39963Z" fill="#787878"/>
</svg>
