<svg width="24" height="22" viewBox="0 0 24 22" fill="none" xmlns="http://www.w3.org/2000/svg">
<path d="M23.1749 6.86034H22.9458L20.798 1.07761C20.6099 0.571312 20.1207 0.23114 19.5806 0.23114H4.41933C3.87928 0.23114 3.39005 0.571312 3.20198 1.07761L1.05417 6.86034H0.825094C0.370125 6.86034 0 7.23047 0 7.68544V8.34834C0 8.80331 0.370125 9.17344 0.825094 9.17344H0.947062V16.8792C0.947062 17.0734 1.10442 17.2308 1.29862 17.2308C1.49283 17.2308 1.65019 17.0734 1.65019 16.8792V9.17344H7.17019C7.47909 9.17344 7.76953 9.05315 7.98802 8.83467L12 4.82259L16.0121 8.83467C16.2305 9.05311 16.521 9.17339 16.8299 9.17339H22.3499V10.1055C22.3499 10.2996 22.5072 10.457 22.7014 10.457C22.8956 10.457 23.053 10.2996 23.053 10.1055V9.17339H23.175C23.6299 9.17339 24 8.80326 24 8.3483V7.68539C24 7.23047 23.6299 6.86034 23.1749 6.86034ZM3.86109 1.32239C3.94734 1.09022 4.17169 0.934265 4.41933 0.934265H19.5806C19.8283 0.934265 20.0526 1.09026 20.1389 1.32239L22.1958 6.86034H17.3089L12.8178 2.36925C12.5993 2.15081 12.309 2.03048 12 2.03048C11.691 2.03048 11.4007 2.15076 11.1822 2.36925L6.69108 6.86034H1.80417L3.86109 1.32239ZM23.2969 8.34834C23.2969 8.41561 23.2422 8.47031 23.1749 8.47031H16.8299C16.7087 8.47031 16.5948 8.42316 16.5092 8.33751L12.2486 4.07686C12.1826 4.01091 12.0932 3.97387 12 3.97387C11.9067 3.97387 11.8173 4.01091 11.7513 4.07686L7.49072 8.33751C7.40508 8.42316 7.29117 8.47031 7.17005 8.47031H0.825094C0.757828 8.47031 0.703125 8.41561 0.703125 8.34834V7.68544C0.703125 7.61817 0.757828 7.56347 0.825094 7.56347H6.83672C6.92995 7.56347 7.01934 7.52644 7.08534 7.46048L11.6795 2.86641C11.7651 2.78077 11.8789 2.73361 12 2.73361C12.1212 2.73361 12.235 2.78077 12.3206 2.86641L16.9147 7.46048C16.9807 7.52644 17.0701 7.56347 17.1634 7.56347H23.175C23.2423 7.56347 23.297 7.61817 23.297 7.68544V8.34834H23.2969Z" fill="#0D4138"/>
<path d="M21.1387 18.9278C21.3329 18.9278 21.4903 18.7704 21.4903 18.5762V12.3259C21.4903 12.1317 21.3329 11.9743 21.1387 11.9743H16.4036C16.2094 11.9743 16.052 12.1317 16.052 12.3259V18.5762C16.052 18.7704 16.2094 18.9278 16.4036 18.9278H21.1387ZM20.7872 16.7094H19.1227V15.045H20.7872V16.7094ZM18.4196 16.7094H16.7551V15.045H18.4196V16.7094ZM20.7872 18.2247H16.7551V17.4126H20.7872V18.2247ZM20.7872 14.3418H19.1227V12.6774H20.7872V14.3418ZM18.4196 12.6774V14.3419H16.7551V12.6774H18.4196Z" fill="#0D4138"/>
<path d="M7.59626 18.9278C7.79046 18.9278 7.94782 18.7704 7.94782 18.5762V12.3259C7.94782 12.1317 7.79046 11.9743 7.59626 11.9743H2.86108C2.66688 11.9743 2.50952 12.1317 2.50952 12.3259V18.5762C2.50952 18.7704 2.66688 18.9278 2.86108 18.9278H7.59626ZM7.24469 16.7094H5.58026V15.045H7.24469V16.7094ZM4.87713 16.7094H3.21265V15.045H4.87713V16.7094ZM7.24469 18.2247H3.21265V17.4126H7.24469V18.2247ZM7.24469 14.3418H5.58026V12.6774H7.24469V14.3418ZM4.87713 12.6774V14.3419H3.21265V12.6774H4.87713Z" fill="#0D4138"/>
<path d="M13.1364 13.4895H10.8635C10.6693 13.4895 10.512 13.6469 10.512 13.8411V15.3563C10.512 15.5505 10.6693 15.7079 10.8635 15.7079H13.1364C13.3306 15.7079 13.488 15.5505 13.488 15.3563V13.8411C13.488 13.6469 13.3306 13.4895 13.1364 13.4895ZM12.7848 15.0048H11.2151V14.1927H12.7848V15.0048Z" fill="#0D4138"/>
<path d="M13.8666 9.0586C13.8666 8.02927 13.0292 7.1918 11.9999 7.1918C10.9705 7.1918 10.1331 8.02927 10.1331 9.0586C10.1331 10.0879 10.9705 10.9254 11.9999 10.9254C13.0292 10.9254 13.8666 10.088 13.8666 9.0586ZM10.8362 9.0586C10.8362 8.41698 11.3582 7.89493 11.9999 7.89493C12.6415 7.89493 13.1635 8.41698 13.1635 9.0586C13.1635 9.70023 12.6415 10.2223 11.9999 10.2223C11.3582 10.2223 10.8362 9.70027 10.8362 9.0586Z" fill="#0D4138"/>
<path d="M23.6484 19.4558H23.053V11.75C23.053 11.5559 22.8956 11.3985 22.7014 11.3985C22.5072 11.3985 22.3499 11.5559 22.3499 11.75V19.4558H15.0032V12.3259C15.0032 12.1317 14.8459 11.9743 14.6517 11.9743H9.34833C9.15413 11.9743 8.99677 12.1317 8.99677 12.3259V19.4558H1.65014V18.5237C1.65014 18.3296 1.49278 18.1722 1.29858 18.1722C1.10438 18.1722 0.947016 18.3296 0.947016 18.5237V19.4558H0.351562C0.157359 19.4558 0 19.6132 0 19.8074V21.4173C0 21.6115 0.157359 21.7689 0.351562 21.7689H23.6484C23.8426 21.7689 24 21.6115 24 21.4173V19.8074C24 19.6132 23.8426 19.4558 23.6484 19.4558ZM9.69989 16.8917H10.2007C10.3949 16.8917 10.5523 16.7343 10.5523 16.5401C10.5523 16.346 10.3949 16.1886 10.2007 16.1886H9.69989V12.6775H14.3002V19.4558H9.69989V16.8917ZM23.2969 21.0658H0.703125V20.1589H23.2969V21.0658Z" fill="#0D4138"/>
</svg>
