<svg width="24" height="24" viewBox="0 0 24 24" fill="none" xmlns="http://www.w3.org/2000/svg">
<path d="M23.4263 8.66906L19.125 6.375V0.75C19.125 0.650544 19.0855 0.555161 19.0152 0.484835C18.9448 0.414509 18.8495 0.375 18.75 0.375H5.25C5.15054 0.375 5.05516 0.414509 4.98484 0.484835C4.91451 0.555161 4.875 0.650544 4.875 0.75V6.375L0.57375 8.66906C0.513747 8.70104 0.46356 8.74872 0.428554 8.80701C0.393548 8.8653 0.375037 8.93201 0.375 9V22.3125C0.375385 22.6605 0.513789 22.9941 0.759847 23.2402C1.00591 23.4862 1.33952 23.6246 1.6875 23.625H22.3125C22.6605 23.6246 22.9941 23.4862 23.2402 23.2402C23.4862 22.9941 23.6246 22.6605 23.625 22.3125V9C23.625 8.93201 23.6065 8.8653 23.5714 8.80701C23.5364 8.74872 23.4863 8.70104 23.4263 8.66906ZM18.375 1.125V2.5875C18.015 2.51326 17.6846 2.33518 17.4247 2.07527C17.1648 1.81536 16.9867 1.485 16.9125 1.125H18.375ZM5.625 1.125H7.0875C7.01326 1.485 6.83518 1.81536 6.57527 2.07527C6.31536 2.33518 5.985 2.51326 5.625 2.5875V1.125ZM5.625 3.34781C6.18545 3.26603 6.70453 3.00552 7.10502 2.60502C7.50552 2.20453 7.76603 1.68545 7.84781 1.125H16.1522C16.234 1.68545 16.4945 2.20453 16.895 2.60502C17.2955 3.00552 17.8146 3.26603 18.375 3.34781V6.40219C17.8146 6.48397 17.2955 6.74448 16.895 7.14498C16.4945 7.54547 16.234 8.06455 16.1522 8.625H7.84781C7.76603 8.06455 7.50552 7.54547 7.10502 7.14498C6.70453 6.74448 6.18545 6.48397 5.625 6.40219V3.34781ZM18.375 7.1625V8.625H16.9125C16.9867 8.265 17.1648 7.93464 17.4247 7.67473C17.6846 7.41482 18.015 7.23674 18.375 7.1625ZM5.625 7.1625C5.985 7.23674 6.31536 7.41482 6.57527 7.67473C6.83518 7.93464 7.01326 8.265 7.0875 8.625H5.625V7.1625ZM22.875 22.3125C22.8749 22.4616 22.8156 22.6046 22.7101 22.7101C22.6046 22.8156 22.4616 22.8749 22.3125 22.875H1.6875C1.53835 22.8749 1.39535 22.8156 1.28989 22.7101C1.18443 22.6046 1.12512 22.4616 1.125 22.3125V10.7498L11.8238 16.4559C11.878 16.4849 11.9385 16.5 12 16.5C12.0615 16.5 12.122 16.4849 12.1763 16.4559L22.875 10.7498V22.3125ZM22.875 9.9L12 15.6998L1.125 9.9V9.225L4.875 7.22484V9C4.875 9.09946 4.91451 9.19484 4.98484 9.26517C5.05516 9.33549 5.15054 9.375 5.25 9.375H10.5V12C10.5 12.0995 10.5395 12.1948 10.6098 12.2652C10.6802 12.3355 10.7755 12.375 10.875 12.375C10.9745 12.375 11.0698 12.3355 11.1402 12.2652C11.2105 12.1948 11.25 12.0995 11.25 12V9.375H11.625V12.375C11.625 12.4745 11.6645 12.5698 11.7348 12.6402C11.8052 12.7105 11.9005 12.75 12 12.75C12.0995 12.75 12.1948 12.7105 12.2652 12.6402C12.3355 12.5698 12.375 12.4745 12.375 12.375V9.375H12.75V10.875C12.75 10.9745 12.7895 11.0698 12.8598 11.1402C12.9302 11.2105 13.0255 11.25 13.125 11.25C13.2245 11.25 13.3198 11.2105 13.3902 11.1402C13.4605 11.0698 13.5 10.9745 13.5 10.875V9.375H18.75C18.8495 9.375 18.9448 9.33549 19.0152 9.26517C19.0855 9.19484 19.125 9.09946 19.125 9V7.22484L22.875 9.225V9.9Z" fill="#DBD0C2"/>
<path d="M8.25 18.75H2.25C2.15054 18.75 2.05516 18.7895 1.98484 18.8598C1.91451 18.9302 1.875 19.0255 1.875 19.125V21.75C1.875 21.8495 1.91451 21.9448 1.98484 22.0152C2.05516 22.0855 2.15054 22.125 2.25 22.125H8.25C8.34946 22.125 8.44484 22.0855 8.51517 22.0152C8.58549 21.9448 8.625 21.8495 8.625 21.75V19.125C8.625 19.0255 8.58549 18.9302 8.51517 18.8598C8.44484 18.7895 8.34946 18.75 8.25 18.75ZM7.875 21.375H2.625V19.5H7.875V21.375Z" fill="#DBD0C2"/>
<path d="M12 2.25C11.4808 2.25 10.9733 2.40395 10.5416 2.69239C10.11 2.98083 9.7735 3.3908 9.57482 3.87046C9.37614 4.35011 9.32415 4.87791 9.42544 5.38711C9.52673 5.89631 9.77673 6.36404 10.1438 6.73116C10.511 7.09827 10.9787 7.34828 11.4879 7.44956C11.9971 7.55085 12.5249 7.49886 13.0045 7.30018C13.4842 7.1015 13.8942 6.76505 14.1826 6.33337C14.471 5.90169 14.625 5.39418 14.625 4.875C14.6242 4.17905 14.3474 3.51182 13.8553 3.01971C13.3632 2.52759 12.696 2.25078 12 2.25ZM12 6.75C11.6292 6.75 11.2666 6.64003 10.9583 6.43401C10.65 6.22798 10.4096 5.93514 10.2677 5.59253C10.1258 5.24992 10.0887 4.87292 10.161 4.50921C10.2334 4.14549 10.412 3.8114 10.6742 3.54917C10.9364 3.28695 11.2705 3.10837 11.6342 3.03603C11.9979 2.96368 12.3749 3.00081 12.7175 3.14273C13.0601 3.28464 13.353 3.52496 13.559 3.83331C13.765 4.14165 13.875 4.50416 13.875 4.875C13.8744 5.37211 13.6767 5.8487 13.3252 6.20021C12.9737 6.55172 12.4971 6.74944 12 6.75Z" fill="#DBD0C2"/>
<path d="M12 14.25C12.0995 14.25 12.1948 14.2105 12.2652 14.1402C12.3355 14.0698 12.375 13.9745 12.375 13.875V13.5C12.375 13.4005 12.3355 13.3052 12.2652 13.2348C12.1948 13.1645 12.0995 13.125 12 13.125C11.9005 13.125 11.8052 13.1645 11.7348 13.2348C11.6645 13.3052 11.625 13.4005 11.625 13.5V13.875C11.625 13.9745 11.6645 14.0698 11.7348 14.1402C11.8052 14.2105 11.9005 14.25 12 14.25Z" fill="#DBD0C2"/>
</svg>
