<svg width="27" height="27" viewBox="0 0 27 27" fill="none" xmlns="http://www.w3.org/2000/svg">
<g clip-path="url(#clip0_0_284)">
<path d="M10.0857 19.9829V25.0258C10.0857 25.3781 10.3119 25.6901 10.6467 25.801C10.7305 25.8282 10.8164 25.8413 10.9012 25.8413C11.1556 25.8413 11.4013 25.7217 11.5579 25.5085L14.5077 21.4942L10.0857 19.9829Z" fill="#DBA976"/>
<path d="M26.3243 0.984529C26.0742 0.807299 25.7459 0.783378 25.4741 0.925815L1.00976 13.7016C0.720542 13.8527 0.549836 14.1615 0.573756 14.4866C0.598764 14.8128 0.815137 15.0912 1.12284 15.1966L7.92392 17.5213L22.4079 5.13693L11.2 18.6401L22.5981 22.5359C22.6829 22.5642 22.7721 22.5794 22.8613 22.5794C23.0091 22.5794 23.1559 22.5392 23.2853 22.4609C23.4919 22.3348 23.6322 22.1228 23.668 21.8846L26.6581 1.76956C26.7027 1.46512 26.5744 1.16285 26.3243 0.984529V0.984529Z" fill="#DBA976"/>
</g>
<defs>
<clipPath id="clip0_0_284">
<rect width="26.0952" height="26.0952" fill="white" transform="translate(0.571533 0.833328)"/>
</clipPath>
</defs>
</svg>
