<svg width="24" height="24" viewBox="0 0 24 24" fill="none" xmlns="http://www.w3.org/2000/svg">
<g clip-path="url(#clip0_0_248)">
<path d="M22.8 12.8H8.00005C7.33755 12.8008 6.80083 13.3375 6.80005 14V22.8C6.80083 23.4625 7.33755 23.9992 8.00005 24H22.8C23.4625 23.9992 23.9993 23.4625 24 22.8V14C23.9993 13.3375 23.4625 12.8008 22.8 12.8ZM23.2 22.8C23.1999 23.0209 23.0209 23.1998 22.8 23.2H8.00005C7.77915 23.1998 7.60024 23.0209 7.60005 22.8V14C7.60024 13.7791 7.77915 13.6002 8.00005 13.6H22.8C23.0209 13.6002 23.1999 13.7791 23.2 14V22.8Z" fill="#787878"/>
<path d="M4.4001 12H20.8001V10.4C20.7993 9.7375 20.2626 9.20078 19.6001 9.2H4.8001C4.1376 9.20078 3.60088 9.7375 3.6001 10.4V19.2C3.60088 19.8625 4.1376 20.3992 4.8001 20.4H6.0001V19.6H4.8001C4.5792 19.5998 4.40029 19.4209 4.4001 19.2V15.6H6.0001V14.8H4.4001V12ZM4.8001 10H19.6001C19.821 10.0002 19.9999 10.1791 20.0001 10.4V11.2H4.4001V10.4C4.40029 10.1791 4.5792 10.0002 4.8001 10Z" fill="#787878"/>
<path d="M21.2001 14.4H18.8001C18.1376 14.4008 17.6009 14.9375 17.6001 15.6V18C17.6009 18.6625 18.1376 19.1992 18.8001 19.2H21.2001C21.8626 19.1992 22.3993 18.6625 22.4001 18V15.6C22.3993 14.9375 21.8626 14.4008 21.2001 14.4ZM18.4001 18V15.6C18.4003 15.3791 18.5792 15.2002 18.8001 15.2H19.2001V16H20.0001V15.2H21.2001C21.421 15.2002 21.5999 15.3791 21.6001 15.6V16.8H20.0001C19.5585 16.8006 19.2007 17.1584 19.2001 17.6V18.4H18.8001C18.5792 18.3998 18.4003 18.2209 18.4001 18ZM21.2001 18.4H20.0001V17.6H21.6001V18C21.5999 18.2209 21.421 18.3998 21.2001 18.4Z" fill="#787878"/>
<path d="M16 15.6H16.8V16.4H16V15.6Z" fill="#787878"/>
<path d="M10 15.6H15.2V16.4H10V15.6Z" fill="#787878"/>
<path d="M8.3999 15.6H9.1999V16.4H8.3999V15.6Z" fill="#787878"/>
<path d="M16 17.2H16.8V18H16V17.2Z" fill="#787878"/>
<path d="M10 17.2H15.2V18H10V17.2Z" fill="#787878"/>
<path d="M8.3999 17.2H9.1999V18H8.3999V17.2Z" fill="#787878"/>
<path d="M14 19.2H12.8C12.3584 19.2006 12.0006 19.5584 12 20V21.2C12.0006 21.6416 12.3584 21.9994 12.8 22H14C14.4416 21.9994 14.7994 21.6416 14.8 21.2V20C14.7994 19.5584 14.4416 19.2006 14 19.2ZM14 21.2H12.8V20H14V21.2Z" fill="#787878"/>
<path d="M10.3999 19.2H9.1999C8.7583 19.2006 8.40049 19.5584 8.3999 20V21.2C8.40049 21.6416 8.7583 21.9994 9.1999 22H10.3999C10.8415 21.9994 11.1993 21.6416 11.1999 21.2V20C11.1993 19.5584 10.8415 19.2006 10.3999 19.2ZM10.3999 21.2H9.1999V20H10.3999V21.2Z" fill="#787878"/>
<path d="M21.2 20.4H22V21.2H21.2V20.4Z" fill="#787878"/>
<path d="M19.6001 20.4H20.4001V21.2H19.6001V20.4Z" fill="#787878"/>
<path d="M18 20.4H18.8V21.2H18V20.4Z" fill="#787878"/>
<path d="M16.3999 20.4H17.1999V21.2H16.3999V20.4Z" fill="#787878"/>
<path d="M2.4 12.4V8.4H5.6C6.2625 8.39922 6.79922 7.8625 6.8 7.2V4.8C6.79922 4.1375 6.2625 3.60078 5.6 3.6H2.4V1.2C2.4002 0.979102 2.5791 0.800195 2.8 0.8H21.6C21.8209 0.800195 21.9998 0.979102 22 1.2V12H22.8V1.2C22.7992 0.5375 22.2625 0.00078125 21.6 0H2.8C2.1375 0.00078125 1.60078 0.5375 1.6 1.2V3.6H1.2C0.5375 3.60078 0.00078125 4.1375 0 4.8V8.8C0.00078125 9.4625 0.5375 9.99922 1.2 10H1.6V12.4C1.60078 13.0625 2.1375 13.5992 2.8 13.6V12.8C2.5791 12.7998 2.4002 12.6209 2.4 12.4ZM0.8 4.8C0.800195 4.5791 0.979101 4.4002 1.2 4.4H5.6C5.8209 4.4002 5.9998 4.5791 6 4.8V7.2C5.9998 7.4209 5.8209 7.5998 5.6 7.6H0.8V4.8ZM1.2 9.2C0.979101 9.19981 0.800195 9.0209 0.8 8.8V8.4H1.6V9.2H1.2Z" fill="#787878"/>
<path d="M5.2001 6C5.2001 6.4418 4.84189 6.8 4.4001 6.8C3.9583 6.8 3.6001 6.4418 3.6001 6C3.6001 5.5582 3.9583 5.2 4.4001 5.2C4.84189 5.2 5.2001 5.5582 5.2001 6Z" fill="#787878"/>
<path d="M21.2001 2.8H20.4001C20.3995 2.3584 20.0417 2.00059 19.6001 2H18.8001C18.3585 2.00059 18.0007 2.3584 18.0001 2.8H15.2001C15.1995 2.3584 14.8417 2.00059 14.4001 2H13.6001C13.1585 2.00059 12.8007 2.3584 12.8001 2.8V3.41621L10.5042 5.38398C10.3628 5.26582 10.1845 5.20078 10.0001 5.2H9.2001C8.7585 5.20059 8.40068 5.5584 8.4001 6H7.6001V6.8H8.4001C8.40068 7.2416 8.7585 7.59941 9.2001 7.6H10.0001C10.4417 7.59941 10.7995 7.2416 10.8001 6.8V6.18379L13.096 4.21602C13.2374 4.33418 13.4157 4.39922 13.6001 4.4H14.4001C14.8417 4.39941 15.1995 4.0416 15.2001 3.6H18.0001C18.0007 4.0416 18.3585 4.39941 18.8001 4.4H19.6001C20.0417 4.39941 20.3995 4.0416 20.4001 3.6H21.2001V2.8ZM9.2001 6.8V6H10.0001L10.0007 6.8H9.2001ZM13.6001 3.6V2.8H14.4001L14.4007 3.6H13.6001ZM18.8001 3.6V2.8H19.6001L19.6007 3.6H18.8001Z" fill="#787878"/>
<path d="M12.3999 6.8H13.1999V7.6H12.3999V6.8Z" fill="#787878"/>
<path d="M14 6.8H19.6V7.6H14V6.8Z" fill="#787878"/>
<path d="M20.3999 6.8H21.1999V7.6H20.3999V6.8Z" fill="#787878"/>
<path d="M13.2 5.2H14V6H13.2V5.2Z" fill="#787878"/>
<path d="M14.8 5.2H19.6V6H14.8V5.2Z" fill="#787878"/>
<path d="M20.3999 5.2H21.1999V6H20.3999V5.2Z" fill="#787878"/>
</g>
<defs>
<clipPath id="clip0_0_248">
<rect width="24" height="24" fill="white"/>
</clipPath>
</defs>
</svg>
