<svg width="24" height="24" viewBox="0 0 24 24" fill="none" xmlns="http://www.w3.org/2000/svg">
<g clip-path="url(#clip0_0_225)">
<path d="M0.400087 24.0464H19.6C19.821 24.0464 20.0001 23.8673 20.0001 23.6465V20.0464H22.8C23.021 20.0464 23.2001 19.8674 23.2001 19.6465V15.6464C23.2001 15.4256 23.021 15.2465 22.8 15.2465H20.0001V11.6464C20.0001 11.4254 19.821 11.2463 19.6 11.2463H18.866C18.9224 10.9849 18.8627 10.7117 18.7024 10.4974L16.895 8.08813L17.7296 7.46209C18.1004 7.1845 18.3075 6.73956 18.2813 6.27703L18.2412 5.55669C18.2302 5.36132 18.3177 5.17345 18.4743 5.05608L19.3087 4.43022L19.6599 4.89824C19.7234 4.98302 19.8181 5.03923 19.9232 5.05425C19.9419 5.05681 19.9608 5.05828 19.9798 5.05809C20.0664 5.05828 20.1506 5.03008 20.2198 4.97808L23.5201 2.5023C24.0501 2.10477 24.1575 1.35276 23.76 0.822666L23.5377 0.526034C23.1397 -0.003326 22.388 -0.110443 21.8577 0.286531L18.5578 2.76213C18.3811 2.89469 18.3452 3.14555 18.4778 3.32225L18.8288 3.79027L17.9944 4.41631C17.6236 4.6939 17.4163 5.13866 17.4427 5.60119L17.4826 6.32153C17.4938 6.5169 17.4062 6.70495 17.2497 6.82214L16.4153 7.44818L14.6076 5.03887C14.4185 4.7827 14.1112 4.64153 13.7936 4.66478C13.4905 4.68675 13.2197 4.86254 13.076 5.13042L9.78921 11.2463H0.400087C0.179078 11.2463 0 11.4254 0 11.6464V15.6464C0 15.8674 0.179078 16.0465 0.400087 16.0465H3.19996V19.2464H0.400087C0.179078 19.2464 0 19.4255 0 19.6465V23.6465C0 23.8673 0.179078 24.0464 0.400087 24.0464ZM22.3378 0.926304C22.5143 0.793735 22.765 0.829441 22.8978 1.00614L23.1201 1.30277C23.2524 1.47947 23.2166 1.72996 23.04 1.86253L20.0596 4.09843L19.3574 3.16203L22.3378 0.926304ZM7.20009 20.0464H12.8V23.2464H7.20009V20.0464ZM10.4001 16.0465H16V19.2464H10.4001V16.0465ZM19.2001 23.2464H13.6V20.0464H19.2001V23.2464ZM22.4001 19.2464H16.8V16.0465H22.4001V19.2464ZM19.2001 15.2465H13.6V12.9172L17.6943 12.0463H19.2001V15.2465ZM13.7809 5.50945C13.7945 5.48144 13.8227 5.46349 13.8538 5.46258L13.8617 5.46221C13.9042 5.46294 13.9435 5.484 13.9677 5.51879L15.7749 7.9281L14.1248 9.16608C13.9481 9.29865 13.9122 9.54932 14.0448 9.7262C14.1773 9.9029 14.428 9.9386 14.6049 9.80622L16.2551 8.56824L18.0625 10.9775C18.0912 11.0127 18.0997 11.0601 18.0845 11.1028C18.0749 11.1325 18.0499 11.1542 18.0191 11.1597L10.0835 12.8472C10.0342 12.8549 9.98477 12.8339 9.95639 12.7929C9.92453 12.7544 9.91812 12.7009 9.93991 12.6559L13.7809 5.50945ZM9.31662 13.273C9.52975 13.5661 9.8956 13.7058 10.2499 13.6297L12.8 13.0873V15.2465H7.20009V12.0463H9.3591L9.23513 12.2771C9.06375 12.5962 9.09579 12.986 9.31662 13.273ZM0.79999 13.6465H1.59998C1.82099 13.6465 2.00007 13.4674 2.00007 13.2464C2.00007 13.0256 1.82099 12.8465 1.59998 12.8465H0.79999V12.0463H6.4001V15.2465H0.79999V13.6465ZM3.99995 16.0465H9.60007V19.2464H3.99995V16.0465ZM0.79999 20.0464H6.4001V23.2464H0.79999V20.0464Z" fill="#0D4138"/>
<path d="M5.20002 13.2464C5.20002 13.0256 5.02094 12.8465 4.79993 12.8465H3.19995C2.97913 12.8465 2.80005 13.0256 2.80005 13.2464C2.80005 13.4674 2.97913 13.6465 3.19995 13.6465H4.79993C5.02094 13.6465 5.20002 13.4674 5.20002 13.2464Z" fill="#0D4138"/>
</g>
<defs>
<clipPath id="clip0_0_225">
<rect width="24" height="24" fill="white"/>
</clipPath>
</defs>
</svg>
