<svg width="30" height="30" viewBox="0 0 30 30" fill="none" xmlns="http://www.w3.org/2000/svg">
<g clip-path="url(#clip0_0_196)">
<path d="M9.5742 5.10544C10.9818 5.10544 12.1269 3.96012 12.1269 2.55272C12.1269 1.1451 10.9818 3.8147e-06 9.5742 3.8147e-06C8.16681 3.8147e-06 7.02148 1.1451 7.02148 2.55272C7.02148 3.96012 8.16681 5.10544 9.5742 5.10544ZM9.5742 1.1776C10.3325 1.1776 10.9493 1.79444 10.9493 2.55272C10.9493 3.31078 10.3325 3.92762 9.5742 3.92762C8.81615 3.92762 8.19931 3.31078 8.19931 2.55272C8.19931 1.79444 8.81615 1.1776 9.5742 1.1776Z" fill="#DBA976"/>
<path d="M16.5581 3.8147e-06C15.1505 3.8147e-06 14.0054 1.1451 14.0054 2.55272C14.0054 3.96012 15.1505 5.10544 16.5581 5.10544C17.9657 5.10544 19.1108 3.96012 19.1108 2.55272C19.1108 1.1451 17.9655 3.8147e-06 16.5581 3.8147e-06ZM16.5581 3.92762C15.7998 3.92762 15.183 3.31078 15.183 2.55272C15.183 1.79444 15.7998 1.1776 16.5581 1.1776C17.3161 1.1776 17.933 1.79444 17.933 2.55272C17.933 3.31078 17.3161 3.92762 16.5581 3.92762Z" fill="#DBA976"/>
<path d="M23.5415 5.10544C24.9491 5.10544 26.0942 3.96012 26.0942 2.55272C26.0942 1.1451 24.9491 3.8147e-06 23.5415 3.8147e-06C22.1339 3.8147e-06 20.9888 1.1451 20.9888 2.55272C20.9888 3.96012 22.1339 5.10544 23.5415 5.10544ZM23.5415 1.1776C24.2995 1.1776 24.9166 1.79444 24.9166 2.55272C24.9166 3.31078 24.2995 3.92762 23.5415 3.92762C22.7832 3.92762 22.1664 3.31078 22.1664 2.55272C22.1664 1.79444 22.7832 1.1776 23.5415 1.1776Z" fill="#DBA976"/>
<path d="M16.5581 6.07198C15.1505 6.07198 14.0054 7.21708 14.0054 8.6247C14.0054 10.0323 15.1505 11.1774 16.5581 11.1774C17.9657 11.1774 19.1108 10.0323 19.1108 8.6247C19.1108 7.21708 17.9655 6.07198 16.5581 6.07198ZM16.5581 9.99982C15.7998 9.99982 15.183 9.38299 15.183 8.6247C15.183 7.86665 15.7998 7.24981 16.5581 7.24981C17.3161 7.24981 17.933 7.86665 17.933 8.6247C17.933 9.38299 17.3161 9.99982 16.5581 9.99982Z" fill="#DBA976"/>
<path d="M23.5415 6.07198C22.1339 6.07198 20.9888 7.21708 20.9888 8.6247C20.9888 10.0323 22.1339 11.1774 23.5415 11.1774C24.9491 11.1774 26.0942 10.0323 26.0942 8.6247C26.0942 7.21708 24.9491 6.07198 23.5415 6.07198ZM23.5415 9.99982C22.7832 9.99982 22.1664 9.38299 22.1664 8.6247C22.1664 7.86665 22.7832 7.24981 23.5415 7.24981C24.2995 7.24981 24.9166 7.86665 24.9166 8.6247C24.9166 9.38299 24.2995 9.99982 23.5415 9.99982Z" fill="#DBA976"/>
<path d="M23.5415 12.144C22.1339 12.144 20.9888 13.2893 20.9888 14.6967C20.9888 16.1043 22.1339 17.2494 23.5415 17.2494C24.9491 17.2494 26.0942 16.1043 26.0942 14.6967C26.0942 13.2893 24.9491 12.144 23.5415 12.144ZM23.5415 16.0718C22.7832 16.0718 22.1664 15.455 22.1664 14.6967C22.1664 13.9384 22.7832 13.3218 23.5415 13.3218C24.2995 13.3218 24.9166 13.9384 24.9166 14.6967C24.9166 15.455 24.2995 16.0718 23.5415 16.0718Z" fill="#DBA976"/>
<path d="M17.8369 23.9199L18.0607 23.6111C18.4237 23.1106 18.6485 22.6622 18.6485 21.9755C18.6485 21.6503 18.3848 21.3866 18.0598 21.3866C17.7346 21.3866 17.4709 21.6503 17.4709 21.9755C17.4709 22.3191 17.3894 22.5308 17.1075 22.9199L16.8834 23.2287C16.6204 23.5917 16.4812 24.0204 16.4812 24.4687V26.0476H9.12706V24.7903C9.12706 24.1069 8.86087 23.4644 8.3777 22.9812L7.30196 21.9055C6.89432 21.4979 6.66979 20.9559 6.66979 20.3796V19.7783C6.66979 18.681 6.45831 17.6101 6.04083 16.5955L5.0722 14.2398C5.02757 14.1316 5.03833 14.008 5.10104 13.9093C5.18733 13.7729 5.35533 13.7102 5.50982 13.7564C6.0145 13.9079 6.42947 14.2467 6.67895 14.7106L6.89318 15.1093C7.20423 15.6884 7.4235 16.3098 7.54457 16.956L7.65238 17.5304C7.70822 17.8294 7.98288 18.0367 8.28546 18.0084C8.58827 17.9802 8.8199 17.7261 8.8199 17.422V7.83162C8.8199 7.67186 8.87941 7.5192 8.98767 7.40155L8.99545 7.39285C9.11035 7.26788 9.26736 7.19487 9.43719 7.18801C9.60771 7.18091 9.7693 7.24042 9.8945 7.35555C10.0247 7.47548 10.0993 7.646 10.0993 7.82315V15.4085C10.0993 15.7337 10.363 15.9974 10.6883 15.9974C11.0135 15.9974 11.2772 15.7337 11.2772 15.4085V11.8325C11.2772 11.6803 11.3447 11.5377 11.4628 11.4413C11.7342 11.2197 12.1229 11.2424 12.3671 11.4937C12.4893 11.6194 12.5566 11.7853 12.5566 11.9606V15.7498C12.5566 16.075 12.8203 16.3387 13.1455 16.3387C13.4705 16.3387 13.7342 16.075 13.7342 15.7498V13.4282C13.7342 13.2021 13.7882 12.9977 13.8947 12.8201C13.9766 12.6832 14.1066 12.5871 14.2606 12.5495C14.4071 12.5138 14.557 12.537 14.682 12.6139L14.7248 12.6406C14.8843 12.7404 14.9795 12.9121 14.9795 13.1002V16.3641C14.9795 16.6893 15.2432 16.953 15.5685 16.953C15.8937 16.953 16.1574 16.6893 16.1574 16.3641V15.3197C16.1574 15.105 16.2221 14.8983 16.3446 14.7219C16.4888 14.5143 16.73 14.4074 16.9594 14.4499C17.0713 14.4705 17.1759 14.5218 17.2615 14.5983C17.3947 14.717 17.4709 14.8873 17.4709 15.0656V17.3345C17.4709 17.6598 17.7346 17.9234 18.0598 17.9234C18.3848 17.9234 18.6485 17.6598 18.6485 17.3345V15.0656C18.6485 14.552 18.4288 14.0613 18.0454 13.7194C17.7987 13.4994 17.4972 13.3515 17.1734 13.2918C16.8262 13.2277 16.4737 13.273 16.1574 13.4099V13.1005C16.1574 12.5035 15.855 11.9583 15.349 11.642L15.3004 11.6118C14.9042 11.3678 14.436 11.2946 13.9814 11.4056C13.8766 11.431 13.7754 11.4658 13.6786 11.5086C13.6005 11.1966 13.4412 10.9092 13.2119 10.6729C12.6935 10.1394 11.9384 9.97989 11.2772 10.2138V7.82315C11.2772 7.31778 11.0638 6.83164 10.6921 6.48923C10.3353 6.16079 9.87229 5.9905 9.38798 6.01133C8.90367 6.03147 8.45621 6.23906 8.12822 6.59612L8.12044 6.60482C7.81191 6.94036 7.64208 7.37615 7.64208 7.83185V14.0231C7.23833 13.3486 6.60639 12.856 5.84811 12.6285C5.1903 12.431 4.47368 12.6985 4.10609 13.2792C3.83922 13.7001 3.79321 14.2268 3.98296 14.6877L4.95181 17.0434C5.31024 17.9154 5.4922 18.8355 5.4922 19.7783V20.3796C5.4922 21.2704 5.83918 22.1081 6.46906 22.7382L7.54503 23.8141C7.80573 24.0748 7.94946 24.4216 7.94946 24.7903V26.0638H7.61026C7.45394 26.064 7.30402 26.1261 7.1937 26.2369C7.08315 26.3474 7.02135 26.4973 7.02158 26.6536L7.02593 29.4121C7.02639 29.7369 7.28983 30.0001 7.61484 30.0001H7.61507L17.8351 29.9971C17.9914 29.9969 18.1413 29.9349 18.2516 29.8241C18.3622 29.7136 18.424 29.5636 18.4237 29.4073L18.4194 26.6488C18.4189 26.3241 18.1555 26.0608 17.8305 26.0608L17.6588 26.0611V24.469C17.6591 24.2703 17.7206 24.0806 17.8369 23.9199ZM8.20284 28.8221L8.20032 27.2414L17.2427 27.2387L17.2452 28.8195L8.20284 28.8221Z" fill="#DBA976"/>
<path d="M5.1366 5.68724L6.04343 6.21069C6.13612 6.26425 6.23729 6.28966 6.33708 6.28966C6.54079 6.28966 6.73854 6.18414 6.84772 5.99532C7.01045 5.71356 6.91386 5.35353 6.63211 5.1908L5.72528 4.66734C5.44376 4.50461 5.08373 4.6012 4.92099 4.88272C4.75849 5.16448 4.85484 5.52451 5.1366 5.68724Z" fill="#DBA976"/>
<path d="M5.10343 8.76821C5.14211 8.76821 5.18125 8.76432 5.22062 8.75653L6.24692 8.5494C6.56575 8.48508 6.77221 8.17472 6.70789 7.85588C6.64357 7.53705 6.33298 7.33106 6.01415 7.39514L4.98784 7.60205C4.66901 7.66637 4.46256 7.97696 4.52687 8.29556C4.58318 8.57503 4.829 8.76821 5.10343 8.76821Z" fill="#DBA976"/>
<path d="M18.6029 19.4183C18.4812 19.1168 18.1378 18.9713 17.8364 19.0933C17.5347 19.215 17.3892 19.5581 17.5112 19.8598L17.5167 19.8733C17.6091 20.1024 17.8298 20.2416 18.0625 20.2416C18.1362 20.2416 18.2109 20.2276 18.2832 20.1985C18.5846 20.0765 18.7302 19.7334 18.6084 19.4318L18.6029 19.4183Z" fill="#DBA976"/>
</g>
<defs>
<clipPath id="clip0_0_196">
<rect width="30" height="30" fill="white"/>
</clipPath>
</defs>
</svg>
