<svg width="18" height="18" viewBox="0 0 18 18" fill="none" xmlns="http://www.w3.org/2000/svg">
<g clip-path="url(#clip0_0_335)">
<path d="M8.92091 0.507935C4.12471 0.507935 0.223145 4.41017 0.223145 9.20665C0.223145 14.0028 4.12471 17.9048 8.92094 17.9048C13.717 17.9048 17.6193 14.0028 17.6193 9.20665C17.6193 4.41017 13.7169 0.507935 8.92091 0.507935ZM8.92091 16.7202C4.77807 16.7202 1.40753 13.3497 1.40753 9.20665C1.40753 5.06332 4.77811 1.69253 8.92091 1.69253C13.0641 1.69253 16.4347 5.06328 16.4347 9.20665C16.4347 13.3497 13.0641 16.7202 8.92091 16.7202Z" fill="#FBFBFB"/>
<path d="M8.92095 2.97891C5.48736 2.97891 2.69397 5.77276 2.69397 9.2067C2.69397 12.6404 5.48736 15.434 8.92095 15.434C9.49364 15.434 9.95705 14.9696 9.95705 14.3976C9.95705 13.8252 9.49368 13.3611 8.92095 13.3611C6.63025 13.3611 4.76677 11.4973 4.76677 9.2067C4.76677 6.91551 6.63025 5.05172 8.92095 5.05172C11.2115 5.05172 13.0756 6.91555 13.0756 9.2067C13.0756 9.77908 13.5398 10.2431 14.1122 10.2431C14.6849 10.2431 15.1485 9.77904 15.1485 9.2067C15.1485 5.77276 12.3552 2.97891 8.92095 2.97891Z" fill="#FBFBFB"/>
<path d="M10.131 9.25873C10.1315 9.24083 10.1361 9.2243 10.1361 9.20643C10.1361 8.53569 9.5924 7.99115 8.92082 7.99115C8.24966 7.99115 7.70618 8.53569 7.70618 9.20643C7.70618 9.87773 8.24966 10.4217 8.92082 10.4217C8.94297 10.4217 8.96287 10.4163 8.98503 10.4151L12.4777 13.3415C12.6387 13.4771 12.8798 13.4805 13.0447 13.3386C13.229 13.1811 13.2505 12.9041 13.093 12.7199L10.131 9.25873Z" fill="#FBFBFB"/>
</g>
<defs>
<clipPath id="clip0_0_335">
<rect width="17.3968" height="17.3968" fill="white" transform="translate(0.222412 0.507935)"/>
</clipPath>
</defs>
</svg>
