<svg fill="none" height="24" viewBox="0 0 24 24" width="24" xmlns="http://www.w3.org/2000/svg">
  <path
    d="M20.3972 6.06356C20.0786 5.74504 19.5786 5.69807 19.2063 5.95181C17.8035 6.90796 10.7674 11.716 10.0112 12.4721C8.91457 13.5688 8.91457 15.353 10.0112 16.4497C10.5595 16.9979 11.2797 17.2721 11.9999 17.2721C12.7201 17.2721 13.4404 16.9979 13.9887 16.4497C14.7448 15.6935 19.5528 8.65734 20.509 7.25456C20.7626 6.88223 20.7157 6.38217 20.3972 6.06356ZM12.6628 15.1238C12.2973 15.4894 11.7025 15.4894 11.337 15.1238C10.9715 14.7583 10.9714 14.1637 11.3368 13.7982C11.6306 13.5078 13.6283 12.0831 16.0862 10.3747C14.3778 12.8325 12.953 14.8301 12.6628 15.1238Z"
    fill="#0D4138"/>
  <path
    d="M4.32333 18.8214L3.16598 19.3859C2.31914 17.8746 1.875 16.1877 1.875 14.4609C1.875 13.1957 2.1083 11.9839 2.53406 10.8664L3.8602 11.5025C3.99098 11.5652 4.12903 11.5949 4.26502 11.5949C4.61438 11.5949 4.94977 11.3987 5.11097 11.0626C5.33484 10.5958 5.13797 10.0358 4.67109 9.81186L3.36178 9.18383C4.98914 6.52977 7.80478 4.67938 11.0625 4.37891V5.78895C11.0625 6.30674 11.4823 6.72645 12 6.72645C12.5178 6.72645 12.9375 6.30674 12.9375 5.78895V4.3782C14.0545 4.47988 15.1352 4.76431 16.1612 5.22744C16.633 5.44049 17.1883 5.23053 17.4014 4.75874C17.6144 4.2868 17.4045 3.73156 16.9326 3.51852C15.378 2.81675 13.7184 2.46088 12 2.46088C8.79469 2.46088 5.78124 3.70906 3.51469 5.97556C1.24823 8.24211 0 11.2556 0 14.4609C0 16.8295 0.703031 19.1331 2.03311 21.1225C2.21227 21.3904 2.50847 21.539 2.81306 21.539C2.95153 21.539 3.09178 21.5083 3.22355 21.4441L5.14542 20.5066C5.6108 20.2796 5.80402 19.7183 5.577 19.253C5.34998 18.7876 4.7887 18.5945 4.32333 18.8214Z"
    fill="#0D4138"/>
  <path
    d="M22.9423 9.52831C22.7293 9.05642 22.1742 8.84642 21.7021 9.05956C21.2302 9.27261 21.0203 9.82784 21.2334 10.2997C21.825 11.6103 22.125 13.0103 22.125 14.4609C22.125 16.1903 21.6794 17.8799 20.8301 19.393L19.6218 18.8176C19.1544 18.595 18.5949 18.7934 18.3723 19.261C18.1497 19.7284 18.3482 20.2879 18.8157 20.5105L20.7844 21.448C20.9139 21.5096 21.0512 21.5391 21.187 21.5391C21.4917 21.5391 21.7879 21.3903 21.9668 21.1226C23.297 19.1331 24 16.8295 24 14.4609C24 12.7425 23.6441 11.0829 22.9423 9.52831Z"
    fill="#0D4138"/>
</svg>
