<svg width="24" height="24" viewBox="0 0 24 24" fill="none" xmlns="http://www.w3.org/2000/svg">
<path d="M17.2016 9.80424C16.9427 9.33356 16.5622 8.94102 16.0998 8.66762C15.6374 8.39422 15.1101 8.24999 14.5729 8.25H13.5V6H16.5C17.7925 5.99854 19.0316 5.48445 19.9455 4.57053C20.8595 3.65661 21.3735 2.41748 21.375 1.125C21.375 1.02554 21.3355 0.930162 21.2652 0.859836C21.1948 0.78951 21.0995 0.750001 21 0.75H3C2.90054 0.750001 2.80516 0.78951 2.73484 0.859836C2.66451 0.930162 2.625 1.02554 2.625 1.125C2.62646 2.41748 3.14055 3.65661 4.05447 4.57053C4.96839 5.48445 6.20752 5.99854 7.5 6H10.5V8.25H9.42709C8.88992 8.24999 8.36259 8.39422 7.9002 8.66762C7.4378 8.94102 7.0573 9.33356 6.79843 9.80424L6.67435 10.0298C4.51282 13.9663 3.3781 18.3841 3.375 22.875C3.375 22.9745 3.41451 23.0698 3.48484 23.1402C3.55516 23.2105 3.65054 23.25 3.75 23.25H20.25C20.3495 23.25 20.4448 23.2105 20.5152 23.1402C20.5855 23.0698 20.625 22.9745 20.625 22.875C20.6219 18.3841 19.4872 13.9663 17.3256 10.0298L17.2016 9.80424ZM3.39189 1.5H20.6081C20.5133 2.52439 20.0397 3.47654 19.2799 4.17012C18.5201 4.8637 17.5288 5.24878 16.5 5.25H7.5C6.47123 5.24878 5.47995 4.8637 4.72014 4.17012C3.96033 3.47654 3.48668 2.52439 3.39189 1.5ZM11.25 6H12.75V8.25H11.25V6ZM4.12775 22.5C4.19212 18.2629 5.29201 14.1058 7.33152 10.3913L7.4556 10.1657C7.64975 9.81268 7.93513 9.51827 8.28192 9.31322C8.62872 9.10817 9.02421 9 9.42709 9H14.5729C14.9758 9 15.3713 9.10817 15.7181 9.31322C16.0649 9.51827 16.3503 9.81268 16.5444 10.1657L16.6685 10.3913C18.708 14.1058 19.8079 18.2629 19.8723 22.5H4.12775Z" fill="#787878"/>
<path d="M12 10.125C10.8875 10.125 9.79994 10.4549 8.87492 11.073C7.94989 11.6911 7.22892 12.5696 6.80318 13.5974C6.37744 14.6252 6.26604 15.7562 6.48309 16.8474C6.70013 17.9385 7.23586 18.9408 8.02252 19.7275C8.80919 20.5141 9.81147 21.0499 10.9026 21.2669C11.9938 21.484 13.1248 21.3726 14.1526 20.9468C15.1804 20.5211 16.0589 19.8001 16.677 18.8751C17.2951 17.9501 17.625 16.8625 17.625 15.75C17.6233 14.2587 17.0301 12.8289 15.9756 11.7744C14.9211 10.7199 13.4913 10.1267 12 10.125ZM14.7541 19.7702L14.3873 19.1348L13.7377 19.5098L14.1053 20.1465C13.5625 20.4076 12.9756 20.565 12.375 20.6107V19.875H11.625V20.6107C11.0244 20.565 10.4375 20.4076 9.89469 20.1465L10.2623 19.5098L9.61274 19.1348L9.2459 19.7702C8.74988 19.4293 8.32071 19.0001 7.97975 18.5041L8.61514 18.1372L8.24014 17.4878L7.60351 17.8553C7.3424 17.3125 7.18496 16.7256 7.13929 16.125H7.875V15.375H7.13929C7.18496 14.7744 7.3424 14.1875 7.60351 13.6447L8.24014 14.0122L8.61513 13.3628L7.97974 12.9959C8.3207 12.4999 8.74988 12.0707 9.2459 11.7298L9.61274 12.3652L10.2623 11.9902L9.89469 11.3535C10.4375 11.0924 11.0244 10.935 11.625 10.8893V11.625H12.375V10.8893C12.9756 10.935 13.5625 11.0924 14.1053 11.3535L13.7377 11.9902L14.3873 12.3652L14.7541 11.7298C15.2501 12.0707 15.6793 12.4999 16.0202 12.9959L15.3849 13.3628L15.7599 14.0122L16.3965 13.6447C16.6576 14.1875 16.815 14.7744 16.8607 15.375H16.125V16.125H16.8607C16.815 16.7256 16.6576 17.3125 16.3965 17.8553L15.7599 17.4878L15.3849 18.1372L16.0202 18.5041C15.6793 19.0001 15.2501 19.4293 14.7541 19.7702Z" fill="#787878"/>
<path d="M12.375 14.6895V12.75H11.625V14.6895C11.3748 14.778 11.1639 14.952 11.0296 15.1809C10.8954 15.4098 10.8463 15.6788 10.8912 15.9404C10.9361 16.202 11.072 16.4392 11.2749 16.6103C11.4778 16.7814 11.7346 16.8752 12 16.8752C12.2654 16.8752 12.5222 16.7814 12.7251 16.6103C12.928 16.4392 13.0639 16.202 13.1088 15.9404C13.1537 15.6788 13.1046 15.4098 12.9704 15.1809C12.8361 14.952 12.6252 14.778 12.375 14.6895ZM12 16.125C11.9258 16.125 11.8533 16.103 11.7917 16.0618C11.73 16.0206 11.6819 15.962 11.6535 15.8935C11.6252 15.825 11.6177 15.7496 11.6322 15.6768C11.6467 15.6041 11.6824 15.5373 11.7348 15.4848C11.7873 15.4324 11.8541 15.3967 11.9268 15.3822C11.9996 15.3677 12.075 15.3752 12.1435 15.4035C12.212 15.4319 12.2706 15.48 12.3118 15.5417C12.353 15.6033 12.375 15.6758 12.375 15.75C12.3749 15.8494 12.3353 15.9447 12.265 16.015C12.1947 16.0853 12.0994 16.1249 12 16.125Z" fill="#787878"/>
</svg>
